
<svg width="36" height="33" viewBox="0 0 36 33" fill="none" xmlns="http://www.w3.org/2000/svg">
<path fill-rule="evenodd" clip-rule="evenodd" d="M12.7569 2.5953C11.7982 2.3149 11.087 2.3901 10.5697 2.67257C10.0524 2.95503 9.60146 3.5144 9.31071 4.47706C9.01784 5.44671 8.91786 6.74121 9.0602 8.30426C9.08326 8.55754 9.11254 8.81628 9.14803 9.08007C10.4037 8.7584 11.7531 8.50433 13.1709 8.32698C14.1538 6.93877 15.1848 5.68689 16.2307 4.60134C16.1783 4.55851 16.126 4.51624 16.0737 4.47455C14.8528 3.50049 13.7226 2.87773 12.7569 2.5953ZM17.9999 2.93623C17.8542 2.81309 17.7086 2.69347 17.5631 2.57743C16.1904 1.48232 14.7846 0.669238 13.4256 0.271775C12.0597 -0.127724 10.6576 -0.126871 9.42663 0.545268C8.19571 1.21741 7.42902 2.40083 7.01477 3.77239C6.60262 5.13696 6.51022 6.76812 6.67025 8.52542C6.70776 8.93731 6.75944 9.35946 6.8251 9.79059C6.41781 9.93772 6.02501 10.093 5.6479 10.2559C4.03887 10.951 2.66009 11.8098 1.66613 12.8251C0.667081 13.8455 0 15.0887 0 16.4999C0 17.9111 0.667081 19.1544 1.66613 20.1748C2.66009 21.1901 4.03887 22.0489 5.6479 22.744C6.025 22.9069 6.41779 23.0622 6.82507 23.2093C6.7594 23.6405 6.70771 24.0626 6.6702 24.4746C6.51018 26.2319 6.60257 27.863 7.01472 29.2276C7.42898 30.5992 8.19566 31.7826 9.42659 32.4547C10.6575 33.1269 12.0596 33.1277 13.4256 32.7282C14.7846 32.3308 16.1904 31.5177 17.5631 30.4226C17.7085 30.3065 17.8542 30.1869 17.9999 30.0637C18.1456 30.1869 18.2912 30.3065 18.4366 30.4226C19.8094 31.5177 21.2152 32.3308 22.5741 32.7282C23.9401 33.1277 25.3422 33.1269 26.5731 32.4547C27.804 31.7826 28.5707 30.5992 28.985 29.2276C29.3971 27.863 29.4895 26.2319 29.3295 24.4746C29.292 24.0627 29.2403 23.6405 29.1747 23.2094C29.582 23.0622 29.9749 22.907 30.3521 22.744C31.9611 22.0489 33.3399 21.1901 34.3339 20.1748C35.3329 19.1544 36 17.9111 36 16.4999C36 15.0887 35.3329 13.8455 34.3339 12.8251C33.3399 11.8098 31.9611 10.951 30.3521 10.2559C29.9749 10.0929 29.582 9.93764 29.1746 9.79048C29.2403 9.35939 29.292 8.93728 29.3295 8.52542C29.4895 6.76812 29.3971 5.13696 28.9849 3.77239C28.5707 2.40083 27.804 1.21741 26.5731 0.545268C25.3422 -0.126871 23.94 -0.127724 22.5741 0.271775C21.2151 0.669238 19.8093 1.48232 18.4366 2.57743C18.2911 2.69347 18.1455 2.81309 17.9999 2.93623ZM22.8288 8.32694C21.8459 6.93875 20.8149 5.68688 19.769 4.60134C19.8214 4.55851 19.8737 4.51624 19.926 4.47455C21.1469 3.50049 22.2772 2.87773 23.2428 2.5953C24.2015 2.3149 24.9127 2.3901 25.43 2.67257C25.9473 2.95503 26.3982 3.5144 26.689 4.47706C26.9819 5.44671 27.0818 6.74121 26.9395 8.30426C26.9164 8.55752 26.8872 8.81624 26.8517 9.08001C25.596 8.75835 24.2466 8.50428 22.8288 8.32694ZM21.4784 10.6124C20.3616 10.5074 19.1978 10.4516 18 10.4516C16.802 10.4516 15.6382 10.5074 14.5213 10.6124C13.8977 11.5524 13.2947 12.5574 12.7241 13.6192C12.2045 14.5861 11.7388 15.55 11.3272 16.4999C11.7388 17.4499 12.2046 18.4138 12.7242 19.3808C13.2947 20.4425 13.8977 21.4475 14.5212 22.3874C15.6382 22.4925 16.802 22.5483 18 22.5483C19.1979 22.5483 20.3616 22.4925 21.4785 22.3875C22.102 21.4475 22.705 20.4426 23.2756 19.3808C23.7951 18.4138 24.2609 17.4499 24.6725 16.5C24.2609 15.55 23.7952 14.5861 23.2756 13.6192C22.705 12.5574 22.102 11.5524 21.4784 10.6124ZM28.688 20.812C28.34 19.424 27.8675 17.9749 27.2759 16.4999C27.8675 15.0249 28.34 13.5758 28.688 12.1879C28.935 12.2821 29.1747 12.3794 29.4067 12.4796C30.8379 13.0979 31.9194 13.8031 32.6257 14.5245C33.3269 15.2407 33.6 15.9069 33.6 16.4999C33.6 17.093 33.3269 17.7592 32.6257 18.4754C31.9194 19.1968 30.8379 19.902 29.4067 20.5203C29.1747 20.6205 28.9351 20.7178 28.688 20.812ZM26.8517 23.9199C25.5961 24.2415 24.2467 24.4956 22.8288 24.6729C21.8459 26.0612 20.8149 27.313 19.769 28.3986C19.8214 28.4415 19.8737 28.4837 19.926 28.5254C21.147 29.4995 22.2772 30.1223 23.2429 30.4047C24.2016 30.6851 24.9127 30.6099 25.43 30.3274C25.9473 30.045 26.3983 29.4856 26.689 28.5229C26.9819 27.5533 27.0819 26.2588 26.9396 24.6957C26.9165 24.4424 26.8872 24.1837 26.8517 23.9199ZM9.148 23.9198C10.4037 24.2415 11.753 24.4955 13.1709 24.6729C14.1538 26.0611 15.1848 27.313 16.2308 28.3986C16.1783 28.4415 16.126 28.4837 16.0737 28.5254C14.8527 29.4995 13.7225 30.1223 12.7568 30.4047C11.7981 30.6851 11.087 30.6099 10.5697 30.3274C10.0524 30.045 9.60141 29.4856 9.31066 28.5229C9.01779 27.5533 8.91782 26.2588 9.06015 24.6957C9.08322 24.4424 9.11251 24.1836 9.148 23.9198ZM7.31174 20.8119C7.65975 19.424 8.13225 17.9749 8.72386 16.4999C8.13226 15.025 7.65976 13.5759 7.31175 12.188C7.06479 12.2822 6.82519 12.3794 6.59331 12.4796C5.16214 13.0979 4.08062 13.8031 3.37432 14.5245C2.67312 15.2407 2.4 15.9069 2.4 16.4999C2.4 17.093 2.67312 17.7592 3.37432 18.4754C4.08062 19.1968 5.16214 19.902 6.59331 20.5203C6.82518 20.6205 7.06478 20.7177 7.31174 20.8119Z" fill="url(#paint0_linear_471_6)"/>
<defs>
<linearGradient id="paint0_linear_471_6" x1="2" y1="3.5" x2="28" y2="33" gradientUnits="userSpaceOnUse">
<stop stop-color="#44CDFF"/>
<stop offset="1" stop-color="#BD34FE"/>
</linearGradient>
</defs>
</svg>
